{
    "asset" : {
        "generator" : "Khronos glTF Blender I/O v3.4.50",
        "version" : "2.0"
    },
    "scene" : 0,
    "scenes" : [
        {
            "name" : "Scene",
            "nodes" : [
                3,
                4
            ]
        }
    ],
    "nodes" : [
        {
            "name" : "Table.003"
        },
        {
            "children" : [
                0
            ],
            "name" : "RootNode"
        },
        {
            "children" : [
                1
            ],
            "name" : "c52f2f46551c4e0f958a2f4c440397d2.fbx",
            "rotation" : [
                0.70710688829422,
                0,
                0,
                0.7071066498756409
            ],
            "scale" : [
                0.009999999776482582,
                0.009999997913837433,
                0.009999997913837433
            ]
        },
        {
            "children" : [
                2
            ],
            "name" : "Sketchfab_model",
            "rotation" : [
                -0.70710688829422,
                0,
                0,
                0.7071066498756409
            ]
        },
        {
            "mesh" : 0,
            "name" : "Table.003_Wheel_0",
            "scale" : [
                0.009999999776482582,
                0.010000000707805157,
                0.010000000707805157
            ]
        }
    ],
    "materials" : [
        {
            "doubleSided" : true,
            "name" : "Wheel.001",
            "normalTexture" : {
                "index" : 0
            },
            "pbrMetallicRoughness" : {
                "baseColorTexture" : {
                    "index" : 1
                },
                "metallicFactor" : 0,
                "roughnessFactor" : 0.5
            }
        }
    ],
    "meshes" : [
        {
            "name" : "Table.003_Wheel_0.001",
            "primitives" : [
                {
                    "attributes" : {
                        "POSITION" : 0,
                        "TEXCOORD_0" : 1,
                        "TEXCOORD_1" : 2,
                        "NORMAL" : 3
                    },
                    "indices" : 4,
                    "material" : 0
                }
            ]
        }
    ],
    "textures" : [
        {
            "sampler" : 0,
            "source" : 0
        },
        {
            "sampler" : 0,
            "source" : 1
        }
    ],
    "images" : [
        {
            "mimeType" : "image/png",
            "name" : "Wheel_normal",
            "uri" : "Wheel_normal.png"
        },
        {
            "mimeType" : "image/png",
            "name" : "Wheel_baseColor",
            "uri" : "Wheel_baseColor.png"
        }
    ],
    "accessors" : [
        {
            "bufferView" : 0,
            "componentType" : 5126,
            "count" : 14861,
            "max" : [
                108.48809814453125,
                27.396696090698242,
                108.19474792480469
            ],
            "min" : [
                -108.48809814453125,
                -47.5914306640625,
                -108.58592987060547
            ],
            "type" : "VEC3"
        },
        {
            "bufferView" : 1,
            "componentType" : 5126,
            "count" : 14861,
            "type" : "VEC2"
        },
        {
            "bufferView" : 2,
            "componentType" : 5126,
            "count" : 14861,
            "type" : "VEC2"
        },
        {
            "bufferView" : 3,
            "componentType" : 5126,
            "count" : 14861,
            "type" : "VEC3"
        },
        {
            "bufferView" : 4,
            "componentType" : 5123,
            "count" : 43389,
            "type" : "SCALAR"
        }
    ],
    "bufferViews" : [
        {
            "buffer" : 0,
            "byteLength" : 178332,
            "byteOffset" : 0,
            "target" : 34962
        },
        {
            "buffer" : 0,
            "byteLength" : 118888,
            "byteOffset" : 178332,
            "target" : 34962
        },
        {
            "buffer" : 0,
            "byteLength" : 118888,
            "byteOffset" : 297220,
            "target" : 34962
        },
        {
            "buffer" : 0,
            "byteLength" : 178332,
            "byteOffset" : 416108,
            "target" : 34962
        },
        {
            "buffer" : 0,
            "byteLength" : 86778,
            "byteOffset" : 594440,
            "target" : 34963
        }
    ],
    "samplers" : [
        {
            "magFilter" : 9729,
            "minFilter" : 9987
        }
    ],
    "buffers" : [
        {
            "byteLength" : 681220,
            "uri" : "roulette_spin-gltf.bin"
        }
    ]
}
