<svg width="429" height="98.50269721864792" viewBox="-4 0 374.18518518518516 85.91666666666666" class="looka-1j8o68f">
    <defs id="SvgjsDefs2651"></defs>
    <g id="SvgjsG2652" featurekey="HKaMnE-0" transform="matrix(0.9002057613168724,0,0,0.9002057613168724,-12.578959806465807,0.3701125506020393)" fill="var(--primary)">
        <path xmlns="http://www.w3.org/2000/svg" d="M14.03,50.03l13.5,13.5l13.5-13.5l-13.5-13.5L14.03,50.03 M27.53,32.03l18,18l-18,18l-18-18L27.53,32.03" style="fill-rule: evenodd; clip-rule: evenodd;"></path>
        <path xmlns="http://www.w3.org/2000/svg" d="M27.53,54.53l4.5-4.5l-4.5-4.5l-4.5,4.5L27.53,54.53 M18.53,50.03l9-9l9,9l-9,9L18.53,50.03" style="fill-rule: evenodd; clip-rule: evenodd;"></path>
        <path xmlns="http://www.w3.org/2000/svg" d="M68.03,72.53l-18-18l-18,18l18,18L68.03,72.53 M72.53,72.53l-22.5,22.5l-22.5-22.5l22.5-22.5L72.53,72.53" style="fill-rule: evenodd; clip-rule: evenodd;"></path>
        <path xmlns="http://www.w3.org/2000/svg" d="M59.03,72.53l-9-9l-9,9l9,9L59.03,72.53 M63.53,72.53l-13.5,13.5l-13.5-13.5l13.5-13.5L63.53,72.53" style="fill-rule: evenodd; clip-rule: evenodd;"></path>
        <polyline xmlns="http://www.w3.org/2000/svg" points="54.53,72.53 50.03,77.03 45.53,72.53 50.03,68.03 54.53,72.53 " style="fill-rule: evenodd; clip-rule: evenodd;"></polyline>
        <path xmlns="http://www.w3.org/2000/svg" d="M41.03,27.53l9,9l9-9l-9-9L41.03,27.53 M36.53,27.53l13.5-13.5l13.5,13.5l-13.5,13.5L36.53,27.53" style="fill-rule: evenodd; clip-rule: evenodd;"></path>
        <polyline xmlns="http://www.w3.org/2000/svg" points="45.53,27.53 50.03,23.03 54.53,27.53 50.03,32.03 45.53,27.53 " style="fill-rule: evenodd; clip-rule: evenodd;"></polyline>
        <path xmlns="http://www.w3.org/2000/svg" d="M72.53,45.53l-4.5,4.5l4.5,4.5l4.5-4.5L72.53,45.53 M81.53,50.03l-9,9l-9-9l9-9L81.53,50.03" style="fill-rule: evenodd; clip-rule: evenodd;"></path>
    </g>
    <g id="SvgjsG2653" featurekey="J3GnXt-0" transform="matrix(2.2307657359280655,0,0,2.2307657359280655,83.08287931895113,18.84661807939721)" fill="var(--light)">
        <path d="M8.0762 20.19531 c-4.1504 0 -7.2168 -2.8223 -7.2168 -7.2559 s3.0664 -7.2461 7.2168 -7.2461 c3.1445 0 5.6641 1.6113 6.6699 4.2871 l-2.7344 0.99609 c-0.625 -1.6406 -2.1191 -2.5879 -3.9355 -2.5879 c-2.4316 0 -4.2969 1.6992 -4.2969 4.5508 s1.8652 4.5605 4.2969 4.5605 c1.8164 0 3.3105 -0.95703 3.9355 -2.5977 l2.7344 0.99609 c-1.0059 2.6758 -3.5254 4.2969 -6.6699 4.2969 z M21.455065625 20.19531 c-3.1934 0 -5.498 -1.9434 -5.498 -5.2246 c0 -3.2617 2.2852 -5.2051 5.498 -5.2051 c3.2324 0 5.5078 1.9434 5.5078 5.2051 c0 3.2813 -2.2852 5.2246 -5.5078 5.2246 z M21.425765625 17.959 c1.6309 0 2.7441 -1.1914 2.7441 -2.9883 s-1.1133 -2.9883 -2.7441 -2.9883 c-1.5723 0 -2.6758 1.1914 -2.6758 2.9883 s1.1035 2.9883 2.6758 2.9883 z M40.94765625 9.766 c2.1484 0 3.5352 1.0938 3.5352 3.1543 l0 7.0801 l-2.8125 0 l0 -6.2793 c0 -1.1816 -0.74219 -1.6992 -1.582 -1.6992 c-1.0059 0 -1.8945 0.57617 -1.8945 2.3145 l0 5.6641 l-2.8418 0 l0 -6.25 c0 -1.2012 -0.72266 -1.7285 -1.6113 -1.7285 c-0.97656 0 -1.8848 0.57617 -1.8848 2.4609 l0 5.5176 l-2.8027 0 l0 -10.039 l2.8027 0 l0 1.1816 c0.66406 -0.88867 1.6797 -1.377 2.9102 -1.377 c1.4551 0 2.5488 0.52734 3.0762 1.5039 c0.70313 -1.0059 1.7773 -1.5039 3.1055 -1.5039 z M52.88081875 7.246 c-0.92773 0 -2.1582 -0.039063 -2.1582 1.6406 l0 1.0742 l2.1582 0 l0 2.1582 l-2.1582 0 l0 7.8809 l-2.8027 0 l0 -7.8809 l-1.9629 0 l0 -2.1582 l1.9629 0 l0 -1.084 c0 -3.3887 2.0508 -3.877 4.9609 -3.877 l0 2.2461 z M61.044878125 9.961 l2.8809 0 l-6.1914 14.766 l-2.8516 0 l2.2949 -5.1367 l-4.1309 -9.6289 l3.0664 0 l2.3926 6.6016 z M72.031278125 20.19531 c-4.1504 0 -7.2168 -2.8223 -7.2168 -7.2559 s3.0664 -7.2461 7.2168 -7.2461 c3.1445 0 5.6641 1.6113 6.6699 4.2871 l-2.7344 0.99609 c-0.625 -1.6406 -2.1191 -2.5879 -3.9355 -2.5879 c-2.4316 0 -4.2969 1.6992 -4.2969 4.5508 s1.8652 4.5605 4.2969 4.5605 c1.8164 0 3.3105 -0.95703 3.9355 -2.5977 l2.7344 0.99609 c-1.0059 2.6758 -3.5254 4.2969 -6.6699 4.2969 z M85.41014375 20.19531 c-3.1934 0 -5.498 -1.9434 -5.498 -5.2246 c0 -3.2617 2.2852 -5.2051 5.498 -5.2051 c3.2324 0 5.5078 1.9434 5.5078 5.2051 c0 3.2813 -2.2852 5.2246 -5.5078 5.2246 z M85.38084375 17.959 c1.6309 0 2.7441 -1.1914 2.7441 -2.9883 s-1.1133 -2.9883 -2.7441 -2.9883 c-1.5723 0 -2.6758 1.1914 -2.6758 2.9883 s1.1035 2.9883 2.6758 2.9883 z M94.443334375 8.457 c-0.88867 0 -1.6309 -0.72266 -1.6309 -1.6211 c0 -0.88867 0.74219 -1.6113 1.6309 -1.6113 c0.86914 0 1.6113 0.72266 1.6113 1.6113 c0 0.89844 -0.74219 1.6211 -1.6113 1.6211 z M93.007834375 20 l0 -10.039 l2.832 0 l0 10.039 l-2.832 0 z M104.677721875 9.766 c2.4121 0 3.7402 1.25 3.7402 3.4766 l0 6.7578 l-2.8223 0 l0 -6.1523 c0 -1.3379 -0.83008 -1.8262 -1.7969 -1.8262 c-1.1621 0 -2.2168 0.58594 -2.2363 2.4414 l0 5.5371 l-2.8125 0 l0 -10.039 l2.8125 0 l0 1.1133 c0.70313 -0.83008 1.7871 -1.3086 3.1152 -1.3086 z M120.5855 14.834 l-0.029297 0.67383 l-7.4414 0 c0.11719 1.6699 1.2305 2.4707 2.5684 2.4707 c1.0059 0 1.7871 -0.46875 2.168 -1.3574 l2.5781 0.38086 c-0.66406 2.0313 -2.4707 3.1934 -4.7266 3.1934 c-3.2422 0 -5.3613 -1.9141 -5.3613 -5.2148 s2.1777 -5.2344 5.2734 -5.2344 c2.8418 0 4.9609 1.5723 4.9707 5.0879 z M115.6348 11.7383 c-1.2793 0 -2.168 0.5957 -2.4414 1.9336 l4.6094 0 c-0.14648 -1.2793 -1.0156 -1.9336 -2.168 -1.9336 z M125.41993125 11.5527 c0.50781 -0.88867 1.8262 -1.709 3.2813 -1.709 l0 2.5098 c-2.1289 0 -3.1445 0.625 -3.1445 2.7539 l0 4.8926 l-2.832 0 l0 -10.039 l2.6953 0 l0 1.5918 z"></path>
    </g>
</svg>